<svg version="1.1" xmlns="http://www.w3.org/2000/svg" xmlns:xlink="http://www.w3.org/1999/xlink" width="24" height="23"><defs/><g><path fill="rgb(122,105,230)" stroke="none" paint-order="stroke fill markers" fill-rule="evenodd" d=" M 7.873710632324219 11.412149965763092 C 7.597564697265625 11.136519491672516 7.1487274169921875 11.136519491672516 6.872581481933594 11.412149965763092 C 6.596435546875 11.687780439853668 6.596435546875 12.135232508182526 6.872581481933594 12.410415530204773 C 6.872581481933594 12.410415530204773 10.134719848632812 15.664286971092224 10.134719848632812 15.664286971092224 C 10.272735595703125 15.801654756069183 10.4453125 15.870562374591827 10.635169982910156 15.870562374591827 C 10.652450561523438 15.870562374591827 10.652450561523438 15.870562374591827 10.669731140136719 15.870562374591827 C 10.859588623046875 15.85355919599533 11.049446105957031 15.76764839887619 11.187461853027344 15.612382531166077 C 11.187461853027344 15.612382531166077 19.351219177246094 5.85211056470871 19.351219177246094 5.85211056470871 C 19.592803955078125 5.559924364089966 19.55835723876953 5.1120248436927795 19.264930725097656 4.853845000267029 C 18.97150421142578 4.6131157875061035 18.522781372070312 4.647122144699097 18.263916015625 4.940203249454498 C 18.263916015625 4.940203249454498 10.583442687988281 14.11476045846939 10.583442687988281 14.11476045846939 C 10.583442687988281 14.11476045846939 7.873710632324219 11.412149965763092 7.873710632324219 11.412149965763092 Z M 17.297348022460938 3.528491973876953 C 13.327621459960938 1.049607515335083 8.23614501953125 1.6348748207092285 4.922279357910156 4.940203249454498 C 1.0216751098632812 8.830351531505585 1.0216751098632812 15.181933641433716 4.922279357910156 19.072081923484802 C 6.872581481933594 21.017603516578674 9.444297790527344 21.99886590242386 11.998733520507812 21.99886590242386 C 14.553054809570312 21.99886590242386 17.124771118164062 21.017603516578674 19.0750732421875 19.072081923484802 C 22.406105041503906 15.750197768211365 22.975677490234375 10.655061066150665 20.47308349609375 6.696005165576935 C 20.265945434570312 6.368470251560211 19.834503173828125 6.265108823776245 19.506515502929688 6.471831679344177 C 19.17864227294922 6.6781070828437805 19.0750732421875 7.10900342464447 19.282211303710938 7.436090886592865 C 21.439651489257812 10.843885838985443 20.9390869140625 15.216387450695038 18.074058532714844 18.07381635904312 C 14.725631713867188 21.413598597049713 9.254440307617188 21.413598597049713 5.9061279296875 18.07381635904312 C 2.5577011108398438 14.734481573104858 2.5577011108398438 9.277803599834442 5.9061279296875 5.93802136182785 C 8.771156311035156 3.0980430841445923 13.137763977050781 2.5986865758895874 16.555198669433594 4.71647721529007 C 16.883071899414062 4.922752618789673 17.31462860107422 4.819838643074036 17.521766662597656 4.492303729057312 C 17.728790283203125 4.165216267108917 17.625335693359375 3.7347673773765564 17.297348022460938 3.528491973876953 Z"/></g></svg>