<svg version="1.1" xmlns="http://www.w3.org/2000/svg" xmlns:xlink="http://www.w3.org/1999/xlink" width="23" height="20"><defs/><g><path fill="rgb(132,92,255)" stroke="none" paint-order="stroke fill markers" fill-rule="evenodd" d=" M 21.230712890625 1.9995129108428955 C 21.230712890625 1.9995129108428955 8.923049926757812 1.9995129108428955 8.923049926757812 1.9995129108428955 C 8.499160766601562 1.9995129108428955 8.153778076171875 2.34628826379776 8.153778076171875 2.7722626328468323 C 8.153778076171875 2.7722626328468323 8.153778076171875 8.18151068687439 8.153778076171875 9.726562678813934 C 8.153778076171875 11.272509574890137 6.615348815917969 11.272509574890137 6.615348815917969 11.272509574890137 C 6.615348815917969 11.272509574890137 2.7692184448242188 11.272509574890137 2.7692184448242188 11.272509574890137 C 2.3453292846679688 11.272509574890137 1.9999465942382812 11.619284927845001 1.9999465942382812 12.044811844825745 C 1.9999465942382812 12.044811844825745 1.9999465942382812 18.22680962085724 1.9999465942382812 18.22680962085724 C 1.9999465942382812 18.652336537837982 2.3453292846679688 18.999111890792847 2.7692184448242188 18.999111890792847 C 2.7692184448242188 18.999111890792847 21.230712890625 18.999111890792847 21.230712890625 18.999111890792847 C 21.65460205078125 18.999111890792847 21.999984741210938 18.652336537837982 21.999984741210938 18.22680962085724 C 21.999984741210938 18.22680962085724 21.999984741210938 2.7722626328468323 21.999984741210938 2.7722626328468323 C 21.999984741210938 2.34628826379776 21.65460205078125 1.9995129108428955 21.230712890625 1.9995129108428955 Z M 18.923011779785156 11.272509574890137 C 18.923011779785156 12.381743252277374 17.89533233642578 14.363061010837555 15.846153259277344 14.363061010837555 C 15.846153259277344 14.363061010837555 13.087669372558594 14.363061010837555 13.087669372558594 14.363061010837555 C 13.087669372558594 14.363061010837555 14.466911315917969 15.748820066452026 14.466911315917969 15.748820066452026 C 14.767662048339844 16.050850212574005 14.767662048339844 16.53902041912079 14.466911315917969 16.841050565242767 C 14.316879272460938 16.991841912269592 14.119926452636719 17.06746131181717 13.9229736328125 17.06746131181717 C 13.72613525390625 17.06746131181717 13.529182434082031 16.991841912269592 13.379150390625 16.841050565242767 C 13.379150390625 16.841050565242767 10.686813354492188 14.136650264263153 10.686813354492188 14.136650264263153 C 10.386062622070312 13.834620118141174 10.386062622070312 13.346002459526062 10.686813354492188 13.043972313404083 C 10.686813354492188 13.043972313404083 13.379150390625 10.339572012424469 13.379150390625 10.339572012424469 C 13.679901123046875 10.03754186630249 14.166046142578125 10.03754186630249 14.466911315917969 10.339572012424469 C 14.767662048339844 10.641602158546448 14.767662048339844 11.13021981716156 14.466911315917969 11.432249963283539 C 14.466911315917969 11.432249963283539 13.087669372558594 12.817561566829681 13.087669372558594 12.817561566829681 C 13.087669372558594 12.817561566829681 15.846153259277344 12.817561566829681 15.846153259277344 12.817561566829681 C 16.92144012451172 12.817561566829681 17.38458251953125 11.644789695739746 17.38458251953125 11.272509574890137 C 17.38458251953125 11.272509574890137 17.38458251953125 9.726562678813934 17.38458251953125 9.726562678813934 C 17.38458251953125 9.299693405628204 17.728363037109375 8.953812956809998 18.15373992919922 8.953812956809998 C 18.579116821289062 8.953812956809998 18.923011779785156 9.299693405628204 18.923011779785156 9.726562678813934 C 18.923011779785156 9.726562678813934 18.923011779785156 11.272509574890137 18.923011779785156 11.272509574890137 Z"/></g></svg>