<svg version="1.1" xmlns="http://www.w3.org/2000/svg" xmlns:xlink="http://www.w3.org/1999/xlink" width="12" height="19"><defs/><g><path fill="rgb(61,70,119)" stroke="none" paint-order="stroke fill markers" fill-rule="evenodd" d=" M 10.660758972167969 1.9988873600959778 C 10.660758972167969 1.9988873600959778 8.502059936523438 1.995307743549347 8.502059936523438 1.995307743549347 C 6.0768280029296875 1.995307743549347 4.5099029541015625 3.542596995830536 4.5099029541015625 5.934228301048279 C 4.5099029541015625 5.934228301048279 4.5099029541015625 7.749988794326782 4.5099029541015625 7.749988794326782 C 4.5099029541015625 7.749988794326782 2.3393020629882812 7.749988794326782 2.3393020629882812 7.749988794326782 C 2.1516189575195312 7.749988794326782 1.999755859375 7.894963264465332 1.999755859375 8.077523708343506 C 1.999755859375 8.077523708343506 1.999755859375 10.706304609775543 1.999755859375 10.706304609775543 C 1.999755859375 10.886627793312073 2.1519622802734375 11.034286975860596 2.3393020629882812 11.034286975860596 C 2.3393020629882812 11.034286975860596 4.509559631347656 11.034286975860596 4.509559631347656 11.034286975860596 C 4.509559631347656 11.034286975860596 4.509559631347656 17.67044860124588 4.509559631347656 17.67044860124588 C 4.509559631347656 17.85032433271408 4.661537170410156 17.99619370698929 4.8491058349609375 17.99619370698929 C 4.8491058349609375 17.99619370698929 7.681060791015625 17.99619370698929 7.681060791015625 17.99619370698929 C 7.868629455566406 17.99619370698929 8.020263671875 17.85032433271408 8.020263671875 17.67044860124588 C 8.020263671875 17.67044860124588 8.020263671875 11.034286975860596 8.020263671875 11.034286975860596 C 8.020263671875 11.034286975860596 10.55810546875 11.034286975860596 10.55810546875 11.034286975860596 C 10.745330810546875 11.034286975860596 10.897308349609375 10.886627793312073 10.897308349609375 10.706304609775543 C 10.897308349609375 10.706304609775543 10.898452758789062 8.077523708343506 10.898452758789062 8.077523708343506 C 10.898452758789062 7.990270555019379 10.862403869628906 7.9061495661735535 10.799118041992188 7.843953728675842 C 10.735260009765625 7.783995151519775 10.648857116699219 7.749988794326782 10.558792114257812 7.749988794326782 C 10.558792114257812 7.749988794326782 8.020263671875 7.749988794326782 8.020263671875 7.749988794326782 C 8.020263671875 7.749988794326782 8.020263671875 6.2112011313438416 8.020263671875 6.2112011313438416 C 8.020263671875 5.469773054122925 8.204055786132812 5.094808220863342 9.20587158203125 5.094808220863342 C 9.20587158203125 5.094808220863342 10.660186767578125 5.093913316726685 10.660186767578125 5.093913316726685 C 10.847640991210938 5.093913316726685 10.999732971191406 4.948043942451477 10.999732971191406 4.768615663051605 C 10.999732971191406 4.768615663051605 10.999732971191406 2.3259748220443726 10.999732971191406 2.3259748220443726 C 10.999732971191406 2.145204186439514 10.847640991210938 1.9988873600959778 10.660758972167969 1.9988873600959778 Z"/></g></svg>