<svg version="1.1" xmlns="http://www.w3.org/2000/svg" xmlns:xlink="http://www.w3.org/1999/xlink" width="20" height="20"><defs/><g><path fill="rgb(61,70,119)" stroke="none" paint-order="stroke fill markers" fill-rule="evenodd" d=" M 16.927719116210938 6.080992579460144 C 16.212234497070312 4.822757363319397 15.241775512695312 3.827176511287689 14.01611328125 3.0946974754333496 C 12.789764404296875 2.362665891647339 11.451148986816406 1.995307743549347 9.999580383300781 1.995307743549347 C 8.548011779785156 1.995307743549347 7.209053039550781 2.362665891647339 5.983619689941406 3.0946974754333496 C 4.7576141357421875 3.827176511287689 3.7868118286132812 4.822757363319397 3.0716705322265625 6.080992579460144 C 2.3561859130859375 7.336543083190918 1.998443603515625 8.708431124687195 1.998443603515625 10.197551608085632 C 1.998443603515625 11.985122621059418 2.5072479248046875 13.591922998428345 3.5248565673828125 15.018400192260742 C 4.542121887207031 16.447114646434784 5.8567047119140625 17.433299005031586 7.467803955078125 17.982770144939423 C 7.655601501464844 18.017223954200745 7.794075012207031 17.993061542510986 7.8845977783203125 17.908045649528503 C 7.974662780761719 17.82258230447769 8.02032470703125 17.715641260147095 8.02032470703125 17.58766996860504 C 8.02032470703125 17.5652973651886 8.018264770507812 17.374235332012177 8.01483154296875 17.009561896324158 C 8.011398315429688 16.647125720977783 8.009567260742188 16.33077710866928 8.009567260742188 16.060068607330322 C 8.009567260742188 16.060068607330322 7.7696990966796875 16.102576553821564 7.7696990966796875 16.102576553821564 C 7.6172637939453125 16.13210839033127 7.4245452880859375 16.14284723997116 7.1917724609375 16.13926762342453 C 6.959114074707031 16.137477815151215 6.7177581787109375 16.1124204993248 6.4678192138671875 16.06543803215027 C 6.217536926269531 16.019350469112396 5.985107421875 15.912856876850128 5.7697296142578125 15.744614899158478 C 5.5545806884765625 15.577715277671814 5.401802062988281 15.358911216259003 5.311393737792969 15.087755262851715 C 5.311393737792969 15.087755262851715 5.2071380615234375 14.842104077339172 5.2071380615234375 14.842104077339172 C 5.137672424316406 14.679231524467468 5.0286102294921875 14.497565984725952 4.8789215087890625 14.29844981431961 C 4.729804992675781 14.099781095981598 4.578742980957031 13.963755667209625 4.426078796386719 13.892163336277008 C 4.426078796386719 13.892163336277008 4.352836608886719 13.837126731872559 4.352836608886719 13.837126731872559 C 4.30419921875 13.803567826747894 4.259223937988281 13.761507332324982 4.217338562011719 13.710050344467163 C 4.1757965087890625 13.660830616950989 4.144554138183594 13.611610889434814 4.1236114501953125 13.560153901576996 C 4.1030120849609375 13.51182907819748 4.1204071044921875 13.472005844116211 4.1757965087890625 13.437999486923218 C 4.231414794921875 13.405335485935211 4.332008361816406 13.389674663543701 4.4781494140625 13.389674663543701 C 4.4781494140625 13.389674663543701 4.686546325683594 13.42144376039505 4.686546325683594 13.42144376039505 C 4.8253631591796875 13.451423048973083 4.9970245361328125 13.535544037818909 5.201988220214844 13.6796236038208 C 5.406951904296875 13.821913361549377 5.575408935546875 14.007158517837524 5.707359313964844 14.233121812343597 C 5.867347717285156 14.52575546503067 6.059608459472656 14.747244238853455 6.285743713378906 14.90161520242691 C 6.5113067626953125 15.05419635772705 6.73858642578125 15.132053017616272 6.967926025390625 15.132053017616272 C 7.197265625 15.132053017616272 7.39501953125 15.11326003074646 7.5616455078125 15.077463865280151 C 7.728385925292969 15.041667699813843 7.884368896484375 14.988420903682709 8.030624389648438 14.915486216545105 C 8.093109130859375 14.440739572048187 8.263282775878906 14.074723780155182 8.541030883789062 13.81699138879776 C 8.145294189453125 13.775825798511505 7.7889251708984375 13.709155440330505 7.473297119140625 13.62503445148468 C 7.1572113037109375 13.53912365436554 6.830711364746094 13.399071156978607 6.4939117431640625 13.2097989320755 C 6.156768798828125 13.016052186489105 5.8773040771484375 12.777560234069824 5.655174255371094 12.492980718612671 C 5.432701110839844 12.208848655223846 5.250396728515625 11.834778726100922 5.1082611083984375 11.369876027107239 C 4.965782165527344 10.9072105884552 4.89471435546875 10.374295175075531 4.89471435546875 9.769787430763245 C 4.89471435546875 8.907099843025208 5.169029235839844 8.175515711307526 5.717658996582031 7.569218158721924 C 5.460853576660156 6.919965207576752 5.4852294921875 6.195092856884003 5.790443420410156 5.389679133892059 C 5.992317199707031 5.327035844326019 6.2906646728515625 5.374465763568878 6.6864013671875 5.534653604030609 C 7.082710266113281 5.696183800697327 7.3723602294921875 5.832209229469299 7.556724548339844 5.946309506893158 C 7.740516662597656 6.061304688453674 7.888145446777344 6.1548221707344055 7.9990386962890625 6.234468638896942 C 8.645401000976562 6.050118386745453 9.312248229980469 5.955706000328064 9.999580383300781 5.955706000328064 C 10.687255859375 5.955706000328064 11.353988647460938 6.050118386745453 12.000350952148438 6.234468638896942 C 12.000350952148438 6.234468638896942 12.396316528320312 5.979868412017822 12.396316528320312 5.979868412017822 C 12.666854858398438 5.807599365711212 12.986488342285156 5.650096237659454 13.354530334472656 5.507806479930878 C 13.722572326660156 5.366859078407288 14.004096984863281 5.327035844326019 14.198760986328125 5.389679133892059 C 14.510841369628906 6.195092856884003 14.53887939453125 6.922202467918396 14.281501770019531 7.569218158721924 C 14.830474853515625 8.175515711307526 15.105018615722656 8.907099843025208 15.105018615722656 9.769787430763245 C 15.105018615722656 10.37474262714386 15.033378601074219 10.909895300865173 14.891242980957031 11.37748271226883 C 14.748764038085938 11.84328031539917 14.565086364746094 12.216902792453766 14.339065551757812 12.498797595500946 C 14.113502502441406 12.778007686138153 13.832321166992188 13.016052186489105 13.495292663574219 13.2097989320755 C 13.158493041992188 13.399071156978607 12.831649780273438 13.53912365436554 12.516021728515625 13.62503445148468 C 12.199935913085938 13.710050344467163 11.843910217285156 13.775825798511505 11.448287963867188 13.81699138879776 C 11.809577941894531 14.137367069721222 11.989479064941406 14.64343535900116 11.989479064941406 15.332958996295929 C 11.989479064941406 15.332958996295929 11.989479064941406 17.58766996860504 11.989479064941406 17.58766996860504 C 11.989479064941406 17.715641260147095 12.033309936523438 17.821687400341034 12.120285034179688 17.908045649528503 C 12.20703125 17.992614090442657 12.344131469726562 18.017223954200745 12.531471252441406 17.982770144939423 C 14.142799377441406 17.433299005031586 15.457267761230469 16.447114646434784 16.474876403808594 15.017952740192413 C 17.49248504638672 13.591028094291687 18.00128936767578 11.985122621059418 18.00128936767578 10.196209251880646 C 18.000717163085938 8.708431124687195 17.642974853515625 7.336543083190918 16.927719116210938 6.080992579460144 Z"/></g></svg>