<svg version="1.1" xmlns="http://www.w3.org/2000/svg" xmlns:xlink="http://www.w3.org/1999/xlink" width="20" height="19"><defs/><g><path fill="rgb(61,70,119)" stroke="none" paint-order="stroke fill markers" fill-rule="evenodd" d=" M 18.99964141845703 11.806141793727875 C 18.99964141845703 11.806141793727875 18.99964141845703 17.99619370698929 18.99964141845703 17.99619370698929 C 18.99964141845703 17.99619370698929 15.35595703125 17.99619370698929 15.35595703125 17.99619370698929 C 15.35595703125 17.99619370698929 15.35595703125 12.220482409000397 15.35595703125 12.220482409000397 C 15.35595703125 10.768052995204926 14.828956604003906 9.77963137626648 13.510482788085938 9.77963137626648 C 12.503288269042969 9.77963137626648 11.904075622558594 10.447229862213135 11.640861511230469 11.093798100948334 C 11.544731140136719 11.323788464069366 11.5198974609375 11.645059049129486 11.5198974609375 11.966329634189606 C 11.5198974609375 11.966329634189606 11.5198974609375 17.99619370698929 11.5198974609375 17.99619370698929 C 11.5198974609375 17.99619370698929 7.8749542236328125 17.99619370698929 7.8749542236328125 17.99619370698929 C 7.8749542236328125 17.99619370698929 7.924049377441406 8.21310168504715 7.8749542236328125 7.199622750282288 C 7.8749542236328125 7.199622750282288 11.519668579101562 7.199622750282288 11.519668579101562 7.199622750282288 C 11.519668579101562 7.199622750282288 11.519668579101562 8.731698632240295 11.519668579101562 8.731698632240295 C 11.512115478515625 8.74199002981186 11.50250244140625 8.75362378358841 11.495521545410156 8.765704989433289 C 11.495521545410156 8.765704989433289 11.519668579101562 8.765704989433289 11.519668579101562 8.765704989433289 C 11.519668579101562 8.765704989433289 11.519668579101562 8.731698632240295 11.519668579101562 8.731698632240295 C 12.003753662109375 7.996534883975983 12.868583679199219 6.946812331676483 14.804122924804688 6.946812331676483 C 17.202003479003906 6.946812331676483 18.99964141845703 8.489179611206055 18.99964141845703 11.806141793727875 Z M 4.06201171875 1.995307743549347 C 2.8154067993164062 1.995307743549347 1.9996719360351562 2.802063822746277 1.9996719360351562 3.8616303205490112 C 1.9996719360351562 4.897481858730316 2.7919464111328125 5.727505445480347 4.013946533203125 5.727505445480347 C 4.013946533203125 5.727505445480347 4.038322448730469 5.727505445480347 4.038322448730469 5.727505445480347 C 5.309303283691406 5.727505445480347 6.0999755859375 4.897929310798645 6.0999755859375 3.8616303205490112 C 6.075828552246094 2.802063822746277 5.309303283691406 1.995307743549347 4.06201171875 1.995307743549347 Z M 2.2165374755859375 17.99619370698929 C 2.2165374755859375 17.99619370698929 5.859535217285156 17.99619370698929 5.859535217285156 17.99619370698929 C 5.859535217285156 17.99619370698929 5.859535217285156 7.199622750282288 5.859535217285156 7.199622750282288 C 5.859535217285156 7.199622750282288 2.2165374755859375 7.199622750282288 2.2165374755859375 7.199622750282288 C 2.2165374755859375 7.199622750282288 2.2165374755859375 17.99619370698929 2.2165374755859375 17.99619370698929 Z"/></g></svg>