<svg version="1.1" xmlns="http://www.w3.org/2000/svg" xmlns:xlink="http://www.w3.org/1999/xlink" width="20" height="17"><defs/><g><path fill="rgb(61,70,119)" stroke="none" paint-order="stroke fill markers" fill-rule="evenodd" d=" M 18.530838012695312 2.2548853158950806 C 17.8563232421875 2.6598294377326965 17.109596252441406 2.953805446624756 16.31468963623047 3.1126509308815002 C 15.678855895996094 2.4249171018600464 14.773513793945312 1.996258020401001 13.770095825195312 1.996258020401001 C 11.843254089355469 1.996258020401001 10.281936645507812 3.5802383422851562 10.281936645507812 5.531129360198975 C 10.281936645507812 5.808102190494537 10.313064575195312 6.077020883560181 10.37188720703125 6.33564817905426 C 7.4742431640625 6.187988996505737 4.9041290283203125 4.781647145748138 3.18408203125 2.6428262591362 C 2.8836746215820312 3.16366046667099 2.7123565673828125 3.7713003754615784 2.7123565673828125 4.420105874538422 C 2.7123565673828125 5.647019445896149 3.3289642333984375 6.728063642978668 4.263374328613281 7.360313415527344 C 3.691741943359375 7.3424153327941895 3.1542129516601562 7.182674944400787 2.6838607788085938 6.918230772018433 C 2.6838607788085938 6.918230772018433 2.6838607788085938 6.962081074714661 2.6838607788085938 6.962081074714661 C 2.6838607788085938 8.67403268814087 3.8861770629882812 10.10319459438324 5.4809112548828125 10.428939700126648 C 5.1890869140625 10.509928524494171 4.8807830810546875 10.552883923053741 4.562522888183594 10.552883923053741 C 4.337303161621094 10.552883923053741 4.119293212890625 10.52961641550064 3.9056320190429688 10.489793181419373 C 4.34954833984375 11.893897771835327 5.6370086669921875 12.913641035556793 7.162849426269531 12.944067776203156 C 5.9698028564453125 13.892218708992004 4.465362548828125 14.45779812335968 2.8318328857421875 14.45779812335968 C 2.5503082275390625 14.45779812335968 2.2725601196289062 14.439452588558197 1.9996185302734375 14.408130943775177 C 3.5435409545898438 15.412213385105133 5.375511169433594 15.99703323841095 7.3460693359375 15.99703323841095 C 13.760826110839844 15.99703323841095 17.2685546875 10.608815431594849 17.2685546875 5.938310742378235 C 17.2685546875 5.938310742378235 17.257225036621094 5.481014728546143 17.257225036621094 5.481014728546143 C 17.940780639648438 4.9852378368377686 18.53301239013672 4.362384557723999 18.99993133544922 3.65317302942276 C 18.374282836914062 3.9341729283332825 17.703086853027344 4.124787509441376 16.997329711914062 4.20935595035553 C 17.717620849609375 3.7713003754615784 18.269569396972656 3.079092025756836 18.530838012695312 2.2548853158950806 Z"/></g></svg>